<svg xmlns="http://www.w3.org/2000/svg" width="22" height="22" fill="none"><path fill="#000" fill-rule="evenodd" d="M16.002 6A5 5 0 0 1 11 11a5 5 0 1 1 5.002-5ZM14 6a3 3 0 1 0-6 0 3 3 0 0 0 6 0Zm6.892 13.55-1.89-3.79A5.002 5.002 0 0 0 14.53 13H7.47a5.002 5.002 0 0 0-4.471 2.76l-1.891 3.79a1 1 0 0 0 .89 1.45h18.006a1 1 0 0 0 .89-1.45ZM4.788 16.66 3.618 19h14.764l-1.17-2.34a3 3 0 0 0-2.68-1.66H7.468a3 3 0 0 0-2.68 1.66Z" clip-rule="evenodd"/><path fill="#fff" d="m19.002 15.76.448-.223v-.001l-.448.224Zm1.891 3.79-.447.223v.002l.447-.225ZM14.531 13v-.5.5ZM7.47 13v-.5.5Zm-4.471 2.76-.447-.224.447.224Zm-1.891 3.79.447.225v-.002l-.447-.223Zm.04.973-.425.262.426-.262Zm.85.477-.001.5h.001V21Zm18.006 0v.5h.001l-.001-.5ZM3.618 19l-.447-.224-.362.724h.809V19Zm1.17-2.34.447.224-.447-.224ZM18.382 19v.5h.81l-.363-.724-.447.224Zm-1.17-2.34-.447.223.447-.223ZM14.532 15v-.5.5Zm-7.063 0v-.5.5ZM11 11.5A5.5 5.5 0 0 0 16.502 6h-1A4.5 4.5 0 0 1 11 10.5v1ZM5.499 6A5.5 5.5 0 0 0 11 11.5v-1A4.5 4.5 0 0 1 6.499 6h-1ZM11 .5A5.5 5.5 0 0 0 5.499 6h1A4.5 4.5 0 0 1 11 1.5v-1ZM16.502 6A5.5 5.5 0 0 0 11 .5v1A4.5 4.5 0 0 1 15.502 6h1ZM11 3.5A2.5 2.5 0 0 1 13.501 6h1a3.5 3.5 0 0 0-3.5-3.5v1ZM8.5 6A2.5 2.5 0 0 1 11 3.5v-1A3.5 3.5 0 0 0 7.5 6h1ZM11 8.5A2.5 2.5 0 0 1 8.5 6h-1A3.5 3.5 0 0 0 11 9.5v-1ZM13.501 6a2.5 2.5 0 0 1-2.5 2.5v1A3.5 3.5 0 0 0 14.5 6h-1Zm5.054 9.983 1.89 3.79.895-.446-1.89-3.79-.895.446ZM14.531 13.5c1.704 0 3.261.961 4.024 2.484l.894-.448a5.502 5.502 0 0 0-4.918-3.036v1Zm-7.062 0h7.062v-1H7.47v1Zm-4.024 2.484A4.502 4.502 0 0 1 7.469 13.5v-1a5.502 5.502 0 0 0-4.918 3.036l.894.448Zm-1.89 3.79 1.89-3.79-.895-.447-1.89 3.79.894.446Zm.019.488a.5.5 0 0 1-.02-.487l-.893-.45a1.5 1.5 0 0 0 .06 1.46l.853-.523Zm.425.238a.5.5 0 0 1-.425-.238l-.852.523a1.5 1.5 0 0 0 1.274.715l.003-1Zm18.004 0H1.997v1h18.006v-1Zm.423-.238a.5.5 0 0 1-.425.238l.003 1a1.5 1.5 0 0 0 1.274-.715l-.852-.523Zm.02-.487a.5.5 0 0 1-.02.487l.852.523a1.5 1.5 0 0 0 .062-1.46l-.893.45Zm-16.381-.551 1.17-2.34-.894-.448-1.17 2.34.894.448Zm14.317-.724H3.618v1h14.764v-1Zm-1.617-1.616 1.17 2.34.895-.448-1.17-2.34-.895.448ZM14.53 15.5a2.501 2.501 0 0 1 2.235 1.383l.894-.446a3.501 3.501 0 0 0-3.127-1.937l-.002 1Zm-7.061 0h7.062v-1H7.47v1Zm-2.234 1.383A2.501 2.501 0 0 1 7.47 15.5l-.002-1a3.5 3.5 0 0 0-3.127 1.937l.894.446Z"/></svg>