<svg xmlns="http://www.w3.org/2000/svg" width="25" height="25" fill="none"><g clip-path="url(#a)"><path fill="#000" stroke="#000" stroke-width=".3" d="M11.343 23.13a1.648 1.648 0 0 0 2.335 0l9.16-9.162A7.342 7.342 0 0 0 25 8.763a7.319 7.319 0 0 0-2.156-5.21 7.307 7.307 0 0 0-5.205-2.156 7.31 7.31 0 0 0-5.134 2.085 7.334 7.334 0 0 0-5.149-2.095 7.32 7.32 0 0 0-5.2 2.15A7.319 7.319 0 0 0 0 8.748a7.32 7.32 0 0 0 2.162 5.206l9.18 9.176Zm-8.3-18.705a6.07 6.07 0 0 1 4.318-1.79c1.632 0 3.171.638 4.328 1.795l.378.377a.625.625 0 0 0 .887 0l.367-.367a6.077 6.077 0 0 1 4.328-1.794 6.07 6.07 0 0 1 4.318 1.79 6.07 6.07 0 0 1 1.79 4.322 6.074 6.074 0 0 1-1.795 4.323l-9.166 9.166a.423.423 0 0 1-.571 0l-9.176-9.176a6.074 6.074 0 0 1-1.795-4.323 6.09 6.09 0 0 1 1.79-4.323Z"/></g><defs><clipPath id="a"><path fill="#fff" d="M0 0h25v25H0z"/></clipPath></defs></svg>