<svg xmlns="http://www.w3.org/2000/svg" width="21" height="21" fill="none"><path fill="#000" fill-rule="evenodd" d="m15.643 14.147 4.221 4.228c.189.21.18.53-.02.729l-.74.74a.528.528 0 0 1-.749 0l-4.221-4.228a2.752 2.752 0 0 1-.317-.38l-.791-1.057a7.381 7.381 0 0 1-4.612 1.617 7.4 7.4 0 0 1-3.22-14.068 7.38 7.38 0 0 1 8.988 2.081 7.406 7.406 0 0 1-.048 9.24l1.055.729c.165.105.317.23.454.37ZM3.137 8.398a5.28 5.28 0 0 0 5.277 5.284c1.4 0 2.742-.557 3.731-1.548a5.288 5.288 0 0 0 1.546-3.736 5.28 5.28 0 0 0-5.277-5.284 5.28 5.28 0 0 0-5.277 5.284Z" clip-rule="evenodd"/><path fill="#fff" d="m19.864 18.375.28-.251-.007-.007-.007-.007-.265.265Zm-4.22-4.228-.27.262.004.003.265-.265Zm4.2 4.957-.265-.267v.002l.264.265Zm-.74.74-.265-.265.266.265Zm-.749 0 .267-.264-.001-.001-.266.265Zm-4.221-4.228-.266.265.266-.265Zm-.317-.38.309-.213-.004-.006-.005-.006-.3.225Zm-.791-1.057.3-.225-.232-.31-.302.242.234.293Zm-4.612 1.617v-.375h-.001v.375Zm-7.226-5.744-.366.083.366-.083Zm4.005-8.324-.162-.338.162.338Zm8.99 2.081-.295.233.294-.233Zm-.05 9.24-.29-.236-.255.314.333.23.213-.309Zm1.056.729-.213.308.01.007.203-.316Zm-3.044-1.644.266.265-.266-.265Zm7.985 5.976-4.222-4.228-.53.53 4.221 4.228.53-.53Zm-.023 1.26a.904.904 0 0 0 .036-1.246l-.557.501a.154.154 0 0 1-.006.212l.527.533Zm-.737.739.739-.74-.53-.53-.74.74.531.53Zm-.64.266c.24 0 .472-.096.641-.267l-.533-.528a.152.152 0 0 1-.108.045v.75Zm-.641-.267c.17.17.4.267.641.267v-.75a.152.152 0 0 1-.108-.045l-.533.528Zm-4.22-4.227 4.221 4.228.53-.53-4.22-4.228-.531.53Zm-.36-.432c.106.155.227.3.36.432l.53-.53a2.374 2.374 0 0 1-.273-.328l-.617.426Zm-.783-1.045.791 1.057.6-.45-.791-1.057-.6.45ZM8.414 16.17c1.76 0 3.47-.599 4.846-1.699l-.468-.586a7.006 7.006 0 0 1-4.378 1.535v.75ZM.822 10.135a7.765 7.765 0 0 0 7.593 6.036l-.002-.75a7.015 7.015 0 0 1-6.86-5.453l-.731.167ZM5.031 1.39a7.776 7.776 0 0 0-4.209 8.745l.731-.167a7.026 7.026 0 0 1 3.802-7.902l-.324-.676Zm9.446 2.187A7.756 7.756 0 0 0 5.03 1.39l.324.676a7.006 7.006 0 0 1 8.533 1.976l.589-.465Zm-.051 9.707a7.78 7.78 0 0 0 .05-9.707l-.588.465a7.031 7.031 0 0 1-.046 8.77l.584.472Zm.976.185-1.055-.73-.426.618 1.055.729.426-.617Zm.51.417a2.952 2.952 0 0 0-.52-.424l-.405.631c.14.09.27.197.388.316l.537-.524Zm-7.498-.579a4.905 4.905 0 0 1-4.902-4.909h-.75c0 3.125 2.53 5.66 5.652 5.66v-.75Zm3.466-1.438a4.898 4.898 0 0 1-3.466 1.438v.75c1.5 0 2.937-.596 3.997-1.658l-.531-.53Zm1.436-3.471c0 1.302-.517 2.55-1.436 3.472l.53.53a5.663 5.663 0 0 0 1.656-4.002h-.75Zm-4.902-4.91a4.905 4.905 0 0 1 4.902 4.91h.75c0-3.125-2.53-5.66-5.652-5.66v.75Zm-4.902 4.91a4.905 4.905 0 0 1 4.902-4.91v-.75a5.655 5.655 0 0 0-5.652 5.66h.75Z"/></svg>