<svg xmlns="http://www.w3.org/2000/svg" width="21" height="21" fill="none"><path fill="#000" d="M6.766 13.577h11.158a.616.616 0 0 0 .591-.447l2.461-8.613a.615.615 0 0 0-.591-.784H5.347l-.44-1.98a.615.615 0 0 0-.6-.481H.615a.615.615 0 1 0 0 1.23h3.198l2.221 9.996a1.848 1.848 0 0 0-1.112 1.694c0 1.017.828 1.845 1.846 1.845h11.156a.615.615 0 1 0 0-1.23H6.768a.616.616 0 0 1-.002-1.23Zm12.803-8.614-2.11 7.383H7.262l-1.64-7.383h13.948ZM6.152 17.883c0 1.018.828 1.846 1.846 1.846a1.848 1.848 0 0 0 1.846-1.846 1.848 1.848 0 0 0-1.846-1.846 1.848 1.848 0 0 0-1.846 1.846Zm1.846-.615a.616.616 0 1 1-.001 1.232.616.616 0 0 1 .001-1.232ZM14.848 17.883c0 1.018.828 1.846 1.845 1.846a1.848 1.848 0 0 0 1.846-1.846 1.848 1.848 0 0 0-1.846-1.846 1.848 1.848 0 0 0-1.845 1.846Zm1.845-.615a.616.616 0 1 1-.001 1.232.616.616 0 0 1 .001-1.232Z"/></svg>