<svg xmlns="http://www.w3.org/2000/svg" width="129" height="27" fill="none"><path fill="#A18A68" d="M12.731 4.706a2.062 2.062 0 0 1-.41-.24c-.16-.113-.387-.216-.683-.307a5.452 5.452 0 0 0-1.128-.273c-.456-.069-1.037-.08-1.743-.034V.399a17.52 17.52 0 0 1 3.042.342c1.048.183 1.89.479 2.529.889-.137.296-.296.627-.479.991-.182.342-.353.672-.512.991-.16.297-.296.547-.41.752a2.887 2.887 0 0 1-.206.342ZM.94 7.44c0-1.002.171-1.902.513-2.7A6.894 6.894 0 0 1 2.82 2.655 6.42 6.42 0 0 1 4.87 1.22 8.698 8.698 0 0 1 7.365.502v3.589c-.729.25-1.333.695-1.811 1.333-.479.615-.718 1.242-.718 1.88 0 .888.24 1.606.718 2.153.478.547 1.082 1.025 1.811 1.436v3.896a53.072 53.072 0 0 1-2.256-1.162 11.317 11.317 0 0 1-2.05-1.504 7.714 7.714 0 0 1-1.538-1.982c-.388-.752-.582-1.652-.582-2.7Zm.547 13.946a8.65 8.65 0 0 0 1.197.547c.5.16 1.014.319 1.538.478.524.137 1.048.25 1.572.342a8.6 8.6 0 0 0 1.47.137h.102v3.247h-.068c-.547 0-1.117-.035-1.71-.103-.569-.045-1.15-.136-1.742-.273a10.68 10.68 0 0 1-1.71-.547 5.897 5.897 0 0 1-1.366-.889l.717-2.94Zm7.28-9.81c.753.342 1.516.707 2.29 1.094a9.341 9.341 0 0 1 2.154 1.435 6.587 6.587 0 0 1 1.572 2.017c.41.798.616 1.789.616 2.974 0 .82-.16 1.617-.48 2.392a6.816 6.816 0 0 1-1.298 2.12c-.547.615-1.23 1.139-2.05 1.572-.821.433-1.755.718-2.803.854v-3.281c1.868-.456 2.802-1.698 2.802-3.726 0-.797-.262-1.458-.786-1.982s-1.196-1.014-2.016-1.47v-3.999Z"/><path fill="#000" d="M38.913.81V26h-4.101V14.652H25.31V11.85h9.502V.81h4.101Zm-19.175 0h4.17V26h-4.17V.81Zm25.02 12.475c0-2.028.24-3.817.718-5.366.5-1.572 1.184-2.894 2.05-3.965.889-1.094 1.926-1.925 3.11-2.495A10.345 10.345 0 0 1 54.568.434v3.418a5.76 5.76 0 0 0-2.187.717c-.684.388-1.276.957-1.778 1.71-.5.751-.9 1.708-1.196 2.87-.296 1.163-.456 2.541-.478 4.136.023 1.618.182 3.008.478 4.17.297 1.14.695 2.096 1.197 2.871.524.775 1.127 1.367 1.811 1.777a5.298 5.298 0 0 0 2.153.684v3.384a10.687 10.687 0 0 1-3.896-.991 9.479 9.479 0 0 1-3.145-2.495c-.866-1.094-1.55-2.427-2.05-4-.479-1.572-.718-3.372-.718-5.4ZM55.935.434a9.591 9.591 0 0 1 3.862.99 8.973 8.973 0 0 1 3.11 2.53c.889 1.071 1.584 2.393 2.085 3.965.501 1.55.752 3.338.752 5.366 0 2.028-.25 3.828-.752 5.4-.501 1.573-1.196 2.906-2.085 4a9.24 9.24 0 0 1-3.076 2.495c-1.185.57-2.484.9-3.896.99v-3.383a5.759 5.759 0 0 0 2.187-.718c.684-.41 1.276-.99 1.777-1.743.502-.775.9-1.732 1.197-2.87.296-1.163.455-2.553.478-4.17-.023-1.619-.182-2.997-.478-4.137-.296-1.162-.707-2.119-1.23-2.87-.502-.775-1.094-1.356-1.778-1.744a5.03 5.03 0 0 0-2.153-.718V.434ZM71.486.81h4.102V26h-4.102V.81Zm7.246 0c1.071 0 2.131.17 3.18.512a8.4 8.4 0 0 1 2.802 1.538 7.674 7.674 0 0 1 2.017 2.495c.524.957.786 2.04.786 3.248 0 1.276-.217 2.438-.65 3.486a7.31 7.31 0 0 1-1.811 2.598c-.775.706-1.71 1.253-2.803 1.64-1.094.387-2.302.581-3.623.581h-1.64V13.9h2.358c.501 0 .99-.08 1.47-.239a3.94 3.94 0 0 0 1.367-.854c.41-.388.74-.923.99-1.607.251-.706.377-1.572.377-2.597 0-.41-.057-.878-.171-1.402a3.798 3.798 0 0 0-.718-1.538c-.342-.501-.832-.911-1.47-1.23-.638-.342-1.48-.513-2.529-.513H76.99V.81h1.743Zm13.433 0h4.102V26h-4.102V.81Zm7.246 0c1.071 0 2.131.17 3.179.512a8.41 8.41 0 0 1 2.803 1.538 7.67 7.67 0 0 1 2.016 2.495c.524.957.786 2.04.786 3.248 0 1.276-.216 2.438-.649 3.486a7.307 7.307 0 0 1-1.812 2.598c-.774.706-1.709 1.253-2.802 1.64-1.094.387-2.302.581-3.623.581h-1.641V13.9h2.358c.502 0 .992-.08 1.47-.239a3.94 3.94 0 0 0 1.367-.854c.41-.388.741-.923.991-1.607.251-.706.376-1.572.376-2.597 0-.41-.056-.878-.17-1.402a3.806 3.806 0 0 0-.718-1.538c-.342-.501-.832-.911-1.47-1.23-.638-.342-1.481-.513-2.53-.513h-1.674V.81h1.743Zm13.569 0h4.17V26h-4.17V.81Zm14.698 13.842h-9.126V11.85h9.126v2.802Zm-9.126 8.238h10.185V26h-10.185v-3.11ZM128.737.81v3.11h-10.185V.81h10.185Z"/></svg>